<svg xmlns="http://www.w3.org/2000/svg" viewBox="0 0 150 150">
  <rect width="150" height="150" fill="#071013"/>
  <defs>
    <rect id="iris-square" x="33" y="33" width="84" height="84" fill="none" stroke="#00ff9f" stroke-width="1.5"/>
    <path id="iris-ray" d="M75 75V10" stroke="#00b8ff" stroke-width="1"/>
  </defs>
  <use href="#iris-square"/>
  <use href="#iris-square" transform="rotate(10 75 75)"/>
  <use href="#iris-square" transform="rotate(20 75 75)"/>
  <use href="#iris-square" transform="rotate(30 75 75)"/>
  <use href="#iris-square" transform="rotate(40 75 75)"/>
  <use href="#iris-square" transform="rotate(50 75 75)"/>
  <use href="#iris-square" transform="rotate(60 75 75)"/>
  <use href="#iris-square" transform="rotate(70 75 75)"/>
  <use href="#iris-square" transform="rotate(80 75 75)"/>
  <g opacity=".8">
    <use href="#iris-ray"/><use href="#iris-ray" transform="rotate(30 75 75)"/>
    <use href="#iris-ray" transform="rotate(60 75 75)"/><use href="#iris-ray" transform="rotate(90 75 75)"/>
    <use href="#iris-ray" transform="rotate(120 75 75)"/><use href="#iris-ray" transform="rotate(150 75 75)"/>
    <use href="#iris-ray" transform="rotate(180 75 75)"/><use href="#iris-ray" transform="rotate(210 75 75)"/>
    <use href="#iris-ray" transform="rotate(240 75 75)"/><use href="#iris-ray" transform="rotate(270 75 75)"/>
    <use href="#iris-ray" transform="rotate(300 75 75)"/><use href="#iris-ray" transform="rotate(330 75 75)"/>
  </g>
  <circle cx="75" cy="75" r="17" fill="#071013" stroke="#00ff9f" stroke-width="3"/>
  <circle cx="75" cy="75" r="5" fill="#00b8ff"/>
</svg>
