<svg xmlns="http://www.w3.org/2000/svg" viewBox="0 0 150 150">
  <rect width="150" height="150" fill="#fff"/>
  <circle cx="75" cy="75" r="61" fill="none" stroke="#3a86ff" stroke-width="2"/>
  <g fill="none" stroke-linejoin="round" stroke-width="1.25">
    <g stroke="#ff006e">
      <polygon points="75,18 124,103 26,103"/>
      <polygon points="75,18 124,103 26,103" transform="rotate(45 75 75)"/>
      <polygon points="75,18 124,103 26,103" transform="rotate(90 75 75)"/>
      <polygon points="75,18 124,103 26,103" transform="rotate(135 75 75)"/>
    </g>
    <g stroke="#8338ec">
      <rect x="35" y="35" width="80" height="80"/>
      <rect x="35" y="35" width="80" height="80" transform="rotate(30 75 75)"/>
      <rect x="35" y="35" width="80" height="80" transform="rotate(60 75 75)"/>
    </g>
    <g stroke="#3a86ff">
      <polygon points="75,29 114.8,52 114.8,98 75,121 35.2,98 35.2,52"/>
      <polygon points="75,29 114.8,52 114.8,98 75,121 35.2,98 35.2,52" transform="rotate(20 75 75)"/>
    </g>
  </g>
</svg>
