<svg xmlns="http://www.w3.org/2000/svg" viewBox="0 0 150 150">
  <rect width="150" height="150" fill="#03045e"/>
  <g fill="none" stroke-linecap="round">
    <path d="M75 75C88 55 121 57 126 78C132 103 95 127 58 119C17 110 12 61 45 35C75 11 125 27 139 58"
          stroke="#90e0ef" stroke-width="2.2"/>
    <path d="M75 75C62 95 29 93 24 72C18 47 55 23 92 31C133 40 138 89 105 115C75 139 25 123 11 92"
          stroke="#fff3b0" stroke-width="1.8"/>
    <path d="M75 75C90 66 103 77 96 89C87 104 55 101 47 82C37 58 66 42 88 50"
          stroke="#caf0f8" stroke-width="1.2"/>
  </g>
  <g fill="#fff3b0">
    <circle cx="22" cy="30" r="1.5"/><circle cx="127" cy="25" r="1"/><circle cx="134" cy="116" r="1.4"/>
    <circle cx="27" cy="125" r="1"/><circle cx="48" cy="16" r="1.2"/><circle cx="107" cy="137" r="1.1"/>
  </g>
  <circle cx="75" cy="75" r="7" fill="#fff3b0"/>
  <circle cx="75" cy="75" r="3" fill="#90e0ef"/>
</svg>
